<svg width="1015" height="164" viewBox="0 0 1015 164" fill="none" xmlns="http://www.w3.org/2000/svg">
<path d="M100 3.99999V116H212V160H2.38419e-07V3.99999H100ZM361.969 -2.38419e-06C386.502 -2.38419e-06 406.969 1.13333 423.369 3.39999C439.769 5.53333 452.902 8.73333 462.769 13C472.635 17.1333 479.635 22.2667 483.769 28.4C487.902 34.4 489.969 41.2667 489.969 49V115C489.969 122.733 487.902 129.667 483.769 135.8C479.635 141.8 472.635 146.933 462.769 151.2C452.902 155.333 439.769 158.467 423.369 160.6C406.969 162.867 386.502 164 361.969 164C337.435 164 316.969 162.867 300.569 160.6C284.169 158.467 271.035 155.333 261.169 151.2C251.302 146.933 244.302 141.8 240.169 135.8C236.035 129.667 233.969 122.733 233.969 115V49C233.969 41.2667 236.035 34.4 240.169 28.4C244.302 22.2667 251.302 17.1333 261.169 13C271.035 8.73333 284.169 5.53333 300.569 3.39999C316.969 1.13333 337.435 -2.38419e-06 361.969 -2.38419e-06ZM389.969 107V57C389.969 54.6 389.502 52.6667 388.569 51.2C387.635 49.7333 386.035 48.6667 383.769 48C381.635 47.2 378.769 46.6667 375.169 46.4C371.702 46.1333 367.302 46 361.969 46C356.635 46 352.169 46.1333 348.569 46.4C345.102 46.6667 342.235 47.2 339.969 48C337.835 48.6667 336.302 49.7333 335.369 51.2C334.435 52.6667 333.969 54.6 333.969 57V107C333.969 109.4 334.435 111.333 335.369 112.8C336.302 114.267 337.835 115.4 339.969 116.2C342.235 116.867 345.102 117.333 348.569 117.6C352.169 117.867 356.635 118 361.969 118C367.302 118 371.702 117.867 375.169 117.6C378.769 117.333 381.635 116.867 383.769 116.2C386.035 115.4 387.635 114.267 388.569 112.8C389.502 111.333 389.969 109.4 389.969 107ZM764.031 160H658.031L620.031 100H723.431L764.031 160ZM518.031 3.99999H644.031C667.098 3.99999 686.298 4.93333 701.631 6.79999C716.965 8.53333 729.231 11.2667 738.431 15C747.765 18.6 754.365 23.2667 758.231 29C762.098 34.6 764.031 41.2667 764.031 49V70C764.031 77.7333 762.098 84.4667 758.231 90.2C754.365 95.8 747.765 100.467 738.431 104.2C729.231 107.8 716.965 110.533 701.631 112.4C686.298 114.133 667.098 115 644.031 115H618.031V160H518.031V3.99999ZM664.031 62V57C664.031 55.1333 663.565 53.6 662.631 52.4C661.831 51.2 660.565 50.2667 658.831 49.6C657.231 48.9333 655.165 48.5333 652.631 48.4C650.231 48.1333 647.365 48 644.031 48H618.031V71H644.031C647.365 71 650.231 70.9333 652.631 70.8C655.165 70.5333 657.231 70.0667 658.831 69.4C660.565 68.7333 661.831 67.8 662.631 66.6C663.565 65.4 664.031 63.8667 664.031 62ZM1014.09 160H792.086V3.99999H1012.09V48H892.086V63H1008.09V99H892.086V116H1014.09V160Z" fill="#F8354A"/>
</svg>
